<?xml version="1.0" standalone="no"?>
<!DOCTYPE svg PUBLIC "-//W3C//DTD SVG 20010904//EN"
 "http://www.w3.org/TR/2001/REC-SVG-20010904/DTD/svg10.dtd">
<svg version="1.0" xmlns="http://www.w3.org/2000/svg"
 width="512.000000pt" height="512.000000pt" viewBox="0 0 512.000000 512.000000"
 preserveAspectRatio="xMidYMid meet">

<g transform="translate(0.000000,512.000000) scale(0.100000,-0.100000)"
fill="#000000" stroke="none">
<path d="M2505 5015 l-25 -24 0 -253 c1 -267 2 -272 48 -297 30 -16 65 -7 92
21 19 21 20 34 20 275 l0 254 -25 24 c-15 16 -36 25 -55 25 -19 0 -40 -9 -55
-25z"/>
<path d="M818 4321 c-33 -27 -42 -64 -24 -99 8 -15 91 -102 184 -194 148 -146
174 -168 201 -168 43 0 81 38 81 81 0 29 -21 54 -177 211 -193 193 -216 207
-265 169z"/>
<path d="M4225 4331 c-11 -5 -98 -87 -192 -183 -152 -153 -173 -178 -173 -207
0 -43 38 -81 81 -81 27 0 54 22 202 168 173 171 204 212 188 254 -16 43 -66
66 -106 49z"/>
<path d="M2345 3965 c-318 -52 -588 -194 -812 -429 -190 -199 -315 -439 -370
-713 -26 -131 -24 -415 4 -543 97 -437 370 -792 759 -988 105 -53 233 -97 357
-124 146 -31 408 -31 554 0 500 107 894 450 1061 923 60 171 77 274 76 474 0
194 -15 291 -69 451 -156 465 -567 831 -1050 934 -132 28 -383 35 -510 15z
m408 -160 c630 -95 1095 -664 1064 -1300 -12 -246 -90 -476 -228 -668 -458
-641 -1366 -719 -1917 -164 -177 178 -278 357 -339 604 -24 97 -27 126 -27
283 0 143 4 191 21 265 47 202 129 369 257 530 183 230 473 399 770 449 109
19 280 19 399 1z"/>
<path d="M113 2625 c-44 -31 -37 -111 13 -134 35 -16 487 -15 517 1 52 27 62
83 22 123 l-24 25 -253 0 c-207 0 -257 -3 -275 -15z"/>
<path d="M4455 2615 c-40 -40 -30 -96 22 -123 30 -16 482 -17 517 -1 50 23 57
103 13 134 -18 12 -68 15 -275 15 l-253 0 -24 -25z"/>
<path d="M966 1081 c-169 -168 -180 -182 -180 -217 0 -46 31 -74 83 -74 33 0
48 13 213 178 157 157 178 182 178 211 0 43 -38 81 -81 81 -29 0 -54 -21 -213
-179z"/>
<path d="M3885 1235 c-16 -16 -25 -35 -25 -57 0 -29 20 -52 178 -210 158 -158
181 -178 210 -178 45 0 68 14 80 48 7 20 6 37 -3 58 -7 16 -89 104 -182 197
-149 147 -173 167 -202 167 -21 0 -41 -9 -56 -25z"/>
<path d="M2505 665 l-25 -24 0 -245 c0 -161 4 -254 11 -270 26 -55 112 -55
138 0 7 16 11 109 11 270 l0 245 -25 24 c-15 16 -36 25 -55 25 -19 0 -40 -9
-55 -25z"/>
</g>
</svg>
